Coordinates
version=1
nRows=8
nColumns=40
inDegrees=yes

Units are S.I. units (second, meters, Newtons, ...)
Angles are in degrees.

endheader
time	pelvis_tilt	pelvis_list	pelvis_rotation	pelvis_tx	pelvis_ty	pelvis_tz	hip_flexion_r	hip_adduction_r	hip_rotation_r	knee_angle_r	knee_angle_r_beta	ankle_angle_r	subtalar_angle_r	mtp_angle_r	hip_flexion_l	hip_adduction_l	hip_rotation_l	knee_angle_l	knee_angle_l_beta	ankle_angle_l	subtalar_angle_l	mtp_angle_l	lumbar_extension	lumbar_bending	lumbar_rotation	arm_flex_r	arm_add_r	arm_rot_r	elbow_flex_r	pro_sup_r	wrist_flex_r	wrist_dev_r	arm_flex_l	arm_add_l	arm_rot_l	elbow_flex_l	pro_sup_l	wrist_flex_l	wrist_dev_l
     53.29500000	     -3.68903078	     -7.00645656	     -3.59960953	      1.11186804	      0.91434703	      0.49529677	     23.78712667	      3.19612566	    -12.53851347	     24.21078104	     24.21078104	      5.02431052	     -4.22334788	     -3.45990696	      2.69559325	    -15.42771589	    -10.15908681	     43.62414262	     43.62414262	      9.09382903	    -17.99224720	     -8.43735135	    -10.44059392	      9.18802031	      3.91756239	     -9.11781537	    -11.18895794	    -20.56375585	     18.10683109	     48.11648479	      0.00000000	      0.00000000	     17.21585535	    -14.76252324	    -12.02992355	     92.90940969	     48.26513989	      0.00000000	      0.00000000
     53.30628571	     -3.66326189	     -7.18414035	     -3.50346921	      1.11200149	      0.91619684	      0.49834885	     22.75235816	      3.58482954	    -12.77137522	     23.61626066	     23.61626066	      5.57914259	     -3.74509841	     -3.45683898	      4.64859231	    -16.18810522	     -9.08579033	     47.45684098	     47.45684098	      6.87011523	    -18.55875231	     -7.36667122	    -10.52847396	      9.18734093	      3.95181272	     -7.41989673	    -11.00142697	    -20.38857128	     18.82707914	     48.07796188	      0.00000000	      0.00000000	     16.05809256	    -14.13884223	    -11.70544242	     91.65627475	     48.21569948	      0.00000000	      0.00000000
     53.31757143	     -3.79391799	     -7.08426348	     -3.34003724	      1.11187347	      0.91791796	      0.50077059	     21.90589883	      3.56287660	    -13.25554803	     23.03385304	     23.03385304	      6.21400012	     -2.69902821	     -3.31065290	      7.23252487	    -16.15480588	     -7.14595001	     51.73178400	     51.73178400	      7.34167097	    -18.60647762	      1.15057058	    -10.29550314	      8.99139662	      3.87184367	     -6.07906216	    -10.92231008	    -19.32761558	     20.16405187	     47.88693182	      0.00000000	      0.00000000	     15.41983728	    -13.45249204	    -11.82843217	     88.07098061	     48.16647351	      0.00000000	      0.00000000
     53.32885714	     -3.83822621	     -7.23985461	     -3.20218273	      1.11169951	      0.91952034	      0.50335922	     20.89876637	      3.93538064	    -13.46321132	     22.27660025	     22.27660025	      6.59369557	     -2.32307862	     -3.31503015	      9.38344140	    -16.65318418	     -5.89659496	     55.10178928	     55.10178928	      5.46511377	    -18.77916004	      2.06953652	    -10.34256894	      8.96115243	      3.94368922	     -4.36502296	    -10.78855344	    -19.11503149	     21.13495523	     47.83199674	      0.00000000	      0.00000000	     14.20215899	    -12.80986943	    -11.25201085	     86.85650266	     48.10085403	      0.00000000	      0.00000000
     53.34014286	     -3.90602491	     -7.13571790	     -3.00819129	      1.11128711	      0.92109243	      0.50537241	     19.98490702	      3.91962101	    -13.87787851	     21.60876625	     21.60876625	      6.85200818	     -1.56328447	     -3.70674678	     11.83485003	    -16.41032790	     -4.11851231	     58.56207754	     58.56207754	      6.06810813	    -18.69502042	      9.17431478	    -10.25131325	      8.76432692	      4.43064596	     -3.63983502	    -10.79362029	    -17.39545277	     23.98506589	     47.49368711	      0.00000000	      0.00000000	     14.07312822	    -12.01518299	    -10.45924400	     82.63935716	     47.98223193	      0.00000000	      0.00000000
     53.35142857	     -3.98451418	     -7.20571128	     -2.82641420	      1.11082721	      0.92239097	      0.50746507	     19.04947636	      4.17773061	    -14.03720278	     20.86359495	     20.86359495	      7.19203093	     -1.16701314	     -3.73796372	     14.00486948	    -16.52002303	     -2.80078472	     61.21594358	     61.21594358	      4.86627677	    -18.77387341	      9.56275904	    -10.20567259	      8.66382921	      4.12123097	     -1.73819990	    -10.71639075	    -17.05568252	     25.38501457	     47.40993276	      0.00000000	      0.00000000	     12.80737333	    -11.76922113	     -9.94982507	     80.63961155	     47.90640019	      0.00000000	      0.00000000
     53.36271429	     -3.99383568	     -7.11383997	     -2.63559593	      1.11020810	      0.92373202	      0.50916650	     18.11903123	      4.18772087	    -14.31814994	     20.24114162	     20.24114162	      7.44073324	     -0.59106805	     -4.06364283	     16.10720832	    -16.26025898	     -1.49351010	     63.55248367	     63.55248367	      4.76189405	    -18.72573526	     11.80381104	    -10.18606035	      8.45909389	      4.79586633	     -1.17994778	    -10.99263616	    -14.75226244	     29.02249468	     47.01915241	      0.00000000	      0.00000000	     13.14385698	    -10.79488939	     -9.02129586	     75.51778128	     47.75953322	      0.00000000	      0.00000000
     53.37400000	     -4.00015419	     -7.11890587	     -2.37594359	      1.10941234	      0.92487624	      0.51077861	     17.23487396	      4.32611092	    -14.48111818	     19.67523691	     19.67523691	      7.74212259	     -0.36526632	     -4.05375311	     18.13033740	    -16.11711296	     -0.30052595	     65.38096320	     65.38096320	      4.31118789	    -18.69598478	     11.65912397	    -10.25695545	      8.28555063	      4.40836229	      0.98116206	    -10.91342845	    -14.41606319	     30.64025768	     46.93545040	      0.00000000	      0.00000000	     11.91965528	    -10.52723907	     -8.49111799	     73.44366995	     47.67690306	      0.00000000	      0.00000000
